<svg width="3868" height="2055" xmlns="http://www.w3.org/2000/svg" overflow="hidden"><defs><clipPath id="a"><path d="M266 238h3868v2055H266z"/></clipPath></defs><g clip-path="url(#a)" transform="translate(-266 -238)"><path d="M266.62 238.101h3866.76V2292.11H266.62z" fill="#F2F2F2" fill-rule="evenodd" fill-opacity=".302"/><path d="M266.62 238.101h762.16v236.915H266.62zM1028.78 238.101h1185.11v236.915H1028.78zM2213.89 238.101h1016.64v236.915H2213.89zM3230.53 238.101h902.85v236.915h-902.85z" fill="#F5E003" fill-rule="evenodd"/><path d="M266.62 475.016h762.16v181.709H266.62zM1028.78 475.016h1185.11v181.709H1028.78zM2213.89 475.016h1016.64v181.709H2213.89zM3230.53 475.016h902.85v181.709h-902.85z" fill="#F2F2F2" fill-rule="evenodd" fill-opacity=".302"/><path d="M266.62 656.725h762.16v181.709H266.62zM1028.78 656.725h1185.11v181.709H1028.78zM2213.89 656.725h1016.64v181.709H2213.89zM3230.53 656.725h902.85v181.709h-902.85z" fill="#F2F2F2" fill-rule="evenodd"/><path d="M266.62 838.434h762.16v181.706H266.62zM1028.78 838.434h1185.11v181.706H1028.78zM2213.89 838.434h1016.64v181.706H2213.89zM3230.53 838.434h902.85v181.706h-902.85z" fill="#F2F2F2" fill-rule="evenodd" fill-opacity=".302"/><path d="M266.62 1020.14h762.16v181.71H266.62zM1028.78 1020.14h1185.11v181.71H1028.78zM2213.89 1020.14h1016.64v181.71H2213.89zM3230.53 1020.14h902.85v181.71h-902.85z" fill="#F2F2F2" fill-rule="evenodd"/><path d="M266.62 1201.85h762.16v181.71H266.62zM1028.78 1201.85h1185.11v181.71H1028.78zM2213.89 1201.85h1016.64v181.71H2213.89zM3230.53 1201.85h902.85v181.71h-902.85z" fill="#F2F2F2" fill-rule="evenodd" fill-opacity=".302"/><path d="M266.62 1383.56h762.16v181.71H266.62zM1028.78 1383.56h1185.11v181.71H1028.78zM2213.89 1383.56h1016.64v181.71H2213.89zM3230.53 1383.56h902.85v181.71h-902.85z" fill="#F2F2F2" fill-rule="evenodd"/><path d="M266.62 1565.27h762.16v181.71H266.62zM1028.78 1565.27h1185.11v181.71H1028.78zM2213.89 1565.27h1016.64v181.71H2213.89zM3230.53 1565.27h902.85v181.71h-902.85z" fill="#F2F2F2" fill-rule="evenodd" fill-opacity=".302"/><path d="M266.62 1746.98h762.16v181.71H266.62zM1028.78 1746.98h1185.11v181.71H1028.78zM2213.89 1746.98h1016.64v181.71H2213.89zM3230.53 1746.98h902.85v181.71h-902.85z" fill="#F2F2F2" fill-rule="evenodd"/><path d="M266.62 1928.69h762.16v181.71H266.62zM1028.78 1928.69h1185.11v181.71H1028.78zM2213.89 1928.69h1016.64v181.71H2213.89zM3230.53 1928.69h902.85v181.71h-902.85z" fill="#F2F2F2" fill-rule="evenodd" fill-opacity=".302"/><path d="M266.62 2110.4h3866.76v181.71H266.62z" fill="#F2F2F2" fill-rule="evenodd"/><path d="M1028.78 475.016v181.709M1028.78 838.434v181.706M1028.78 1201.85v181.71M1028.78 1565.27v181.71M1028.78 1928.69v181.71M2213.89 475.016v181.709M2213.89 838.434v181.706M2213.89 1201.85v181.71M2213.89 1565.27v181.71M2213.89 1928.69v181.71M3230.53 475.016v181.709M3230.53 838.434v181.706M3230.53 1201.85v181.71M3230.53 1565.27v181.71M3230.53 1928.69v181.71" stroke="#525252" stroke-width="2.292" stroke-linejoin="round" stroke-miterlimit="10" fill="none" fill-rule="evenodd"/><text fill="#FFF" font-family="Calibri,Calibri_MSFontService,sans-serif" font-weight="700" font-size="73" transform="translate(532.722 382)">Modules<tspan x="918.062" y="0">Phase Name</tspan><tspan x="1837.1" y="-44">E learning &amp; Assignment </tspan><tspan x="2091.08" y="44">Release</tspan><tspan x="2985.9" y="0">Live Session</tspan><tspan fill="#191919" font-weight="400" font-size="69" x="-61.507" y="207">Module 0</tspan><tspan fill="#191919" font-weight="400" font-size="69" x="700.649" y="207">Onboarding</tspan><tspan fill="#191919" font-weight="400" font-size="69" x="1885.76" y="207">17 April 2023</tspan><tspan fill="#191919" font-weight="400" font-size="69" x="2902.41" y="207">21 April 2023</tspan><tspan fill="#191919" font-weight="400" font-size="69" x="-61.507" y="388">Module 1</tspan><tspan fill="#191919" font-weight="400" font-size="69" x="700.649" y="388">S&amp;OP</tspan><tspan fill="#191919" font-weight="400" font-size="69" x="1885.76" y="388">24 April 2023</tspan><tspan fill="#191919" font-weight="400" font-size="69" x="2902.41" y="388">28 April 2023</tspan><tspan fill="#191919" font-weight="400" font-size="69" x="-61.507" y="570">Module 2</tspan><tspan fill="#191919" font-weight="400" font-size="69" x="700.649" y="570">Portfolio</tspan><tspan fill="#191919" font-weight="400" font-size="69" x="1885.76" y="570">15 May 2023</tspan><tspan fill="#191919" font-weight="400" font-size="69" x="2902.41" y="570">19 May 2023</tspan><tspan fill="#191919" font-weight="400" font-size="69" x="-61.507" y="752">Module 3</tspan><tspan fill="#191919" font-weight="400" font-size="69" x="700.649" y="752">Demand Planning</tspan><tspan fill="#191919" font-weight="400" font-size="69" x="1885.76" y="752">05 June 2023</tspan><tspan fill="#191919" font-weight="400" font-size="69" x="2902.41" y="752">09 June 2023</tspan><tspan fill="#191919" font-weight="400" font-size="69" x="-61.507" y="933">Module 4</tspan><tspan fill="#191919" font-weight="400" font-size="69" x="700.649" y="933">Inventory Planning</tspan><tspan fill="#191919" font-weight="400" font-size="69" x="1885.76" y="933">19 June 2023</tspan><tspan fill="#191919" font-weight="400" font-size="69" x="2902.41" y="933">23 June 2023</tspan><tspan fill="#191919" font-weight="400" font-size="69" x="-61.507" y="1115">Module 5</tspan><tspan fill="#191919" font-weight="400" font-size="69" x="700.649" y="1115">Supply Chain Design</tspan><tspan fill="#191919" font-weight="400" font-size="69" x="1885.76" y="1115">10 July 2023</tspan><tspan fill="#191919" font-weight="400" font-size="69" x="2902.41" y="1115">14 July 2023</tspan><tspan fill="#191919" font-weight="400" font-size="69" x="-61.507" y="1297">Module 6</tspan><tspan fill="#191919" font-weight="400" font-size="69" x="700.649" y="1297">Supply Network Planning</tspan><tspan fill="#191919" font-weight="400" font-size="69" x="1885.76" y="1297">07 August 2023</tspan><tspan fill="#191919" font-weight="400" font-size="69" x="2902.41" y="1297">11 August 2023</tspan><tspan fill="#191919" font-weight="400" font-size="69" x="-61.507" y="1479">Module 7</tspan><tspan fill="#191919" font-weight="400" font-size="69" x="700.649" y="1479">MRP</tspan><tspan fill="#191919" font-weight="400" font-size="69" x="1885.76" y="1479">21 August 2023</tspan><tspan fill="#191919" font-weight="400" font-size="69" x="2902.41" y="1479">25 August 2023</tspan><tspan fill="#191919" font-weight="400" font-size="69" x="-61.507" y="1660">Module 8</tspan><tspan fill="#191919" font-weight="400" font-size="69" x="700.649" y="1660">Circular Packaging</tspan><tspan fill="#191919" font-weight="400" font-size="69" x="1885.76" y="1660">11 September 2023</tspan><tspan fill="#191919" font-weight="400" font-size="69" x="2902.41" y="1660">15 September 2023</tspan><tspan fill="#191919" font-size="69" x="1572.53" y="1842">GRADUATION</tspan></text></g></svg>